<?xml version="1.0" standalone="no"?>
<!DOCTYPE svg PUBLIC "-//W3C//DTD SVG 20010904//EN"
 "http://www.w3.org/TR/2001/REC-SVG-20010904/DTD/svg10.dtd">
<svg version="1.0" xmlns="http://www.w3.org/2000/svg"
 width="771.000000pt" height="771.000000pt" viewBox="0 0 771.000000 771.000000"
 preserveAspectRatio="xMidYMid meet">

<g transform="translate(0.000000,771.000000) scale(0.100000,-0.100000)"
fill="#000000" stroke="none">
<path d="M4009 7349 c-8 -5 -33 -9 -56 -9 -31 0 -43 -4 -43 -14 0 -19 -28 -28
-78 -25 -22 2 -47 -2 -54 -9 -8 -6 -29 -13 -48 -15 -19 -2 -42 -7 -50 -10 -8
-3 -33 -8 -55 -11 -22 -2 -61 -9 -87 -15 -52 -11 -252 -103 -263 -120 -3 -6
-16 -11 -28 -11 -23 0 -146 -75 -160 -97 -4 -7 -23 -13 -42 -13 -20 0 -42 -8
-52 -19 -10 -10 -31 -21 -47 -25 -15 -4 -30 -15 -33 -24 -4 -17 -64 -62 -82
-62 -5 0 -15 -7 -22 -16 -16 -20 -93 -54 -120 -54 -27 0 -149 -121 -149 -148
0 -17 -10 -26 -40 -38 -27 -11 -42 -24 -46 -41 -7 -28 -39 -65 -71 -81 -12 -7
-25 -26 -28 -44 -8 -36 -13 -43 -74 -107 -24 -25 -49 -60 -57 -77 -7 -17 -20
-36 -28 -44 -9 -7 -16 -19 -16 -27 0 -8 -18 -40 -39 -73 -22 -32 -42 -73 -46
-92 -4 -18 -20 -51 -36 -73 -32 -44 -59 -123 -59 -172 0 -17 -5 -44 -11 -60
-6 -15 -10 -29 -10 -31 1 -1 -6 -18 -14 -38 -8 -20 -15 -49 -15 -64 0 -15 -7
-47 -15 -71 -30 -84 -34 -118 -17 -135 11 -12 12 -18 3 -23 -7 -5 -13 -47 -15
-117 -4 -130 -15 -224 -26 -224 -38 0 -55 45 -26 69 12 10 32 74 28 92 0 3 3
22 8 43 15 68 -14 34 -33 -38 -9 -37 -24 -80 -32 -96 -8 -16 -15 -46 -15 -67
0 -21 -4 -54 -10 -73 -6 -22 -6 -38 0 -44 14 -14 13 -82 -2 -105 -6 -10 -8
-27 -4 -37 6 -16 9 -16 16 -4 8 12 10 11 10 -6 0 -12 14 -32 33 -47 18 -14 40
-46 51 -72 18 -44 18 -49 3 -60 -10 -7 -17 -16 -17 -20 0 -4 7 -2 15 5 11 9
18 8 35 -8 18 -16 20 -29 17 -78 -2 -38 3 -81 15 -119 21 -72 23 -95 5 -95 -8
0 -19 18 -26 41 -11 38 -15 40 -39 34 -36 -9 -59 -31 -74 -71 -6 -18 -15 -31
-20 -28 -4 3 -8 -6 -8 -20 0 -13 -16 -56 -36 -95 -84 -165 -71 -265 38 -300
42 -14 65 -36 48 -46 -5 -3 -10 -19 -10 -34 0 -21 6 -30 21 -34 12 -3 19 -10
16 -14 -8 -13 9 -37 21 -29 5 3 12 20 16 38 6 30 8 31 20 15 8 -10 20 -15 30
-11 10 4 22 0 30 -11 12 -16 14 -16 39 7 18 17 26 34 25 57 -1 18 5 36 12 41
12 7 16 33 21 115 1 17 8 50 16 75 8 24 11 55 8 69 -4 14 -1 27 6 32 8 5 14
38 16 91 3 103 11 158 24 174 5 6 11 29 14 50 2 22 9 62 15 89 6 28 12 57 13
66 1 8 10 23 20 33 19 19 23 46 7 46 -5 0 -10 -5 -10 -11 0 -5 -4 -7 -10 -4
-6 3 -10 13 -10 22 0 12 7 14 30 10 l30 -6 0 74 c0 42 4 75 10 75 5 0 7 6 4
14 -3 8 4 36 16 63 13 26 25 61 29 78 4 17 17 35 30 41 26 14 61 61 61 85 0
18 51 67 65 63 19 -6 47 25 51 58 3 18 14 51 24 73 10 22 22 53 26 69 6 26 5
27 -14 17 -12 -7 -24 -26 -28 -46 -3 -19 -10 -35 -15 -35 -11 0 -1 53 23 113
10 27 16 52 13 57 -3 5 3 14 12 20 13 8 14 13 6 16 -18 8 -16 31 2 38 8 3 15
13 15 21 0 9 -5 13 -10 10 -6 -4 -8 -11 -5 -16 4 -5 -1 -9 -11 -9 -12 0 -15 6
-10 23 3 12 6 26 6 31 0 5 6 3 14 -3 9 -8 16 -8 20 -2 4 5 -1 14 -10 19 -11 6
-13 11 -5 16 6 4 11 16 11 27 0 11 7 22 15 25 8 4 12 10 9 16 -10 16 -11 82
-1 102 7 14 6 17 -5 13 -7 -2 -12 -10 -10 -16 1 -6 -2 -11 -8 -11 -5 0 -10 16
-10 36 0 21 4 33 10 29 6 -3 10 -2 10 4 0 5 -6 12 -12 14 -8 3 -5 6 6 6 13 1
16 6 12 17 -4 9 3 32 14 51 11 19 20 41 20 50 0 10 6 14 20 10 23 -6 35 7 45
51 4 18 13 36 20 38 7 3 11 14 8 25 -3 11 1 27 9 37 18 20 25 39 44 112 20 74
74 178 95 183 10 3 21 17 25 32 4 15 25 46 48 69 22 24 52 55 65 69 13 15 32
27 42 27 11 0 22 7 25 15 4 8 14 15 24 15 11 0 22 5 25 10 4 6 10 8 15 5 4 -2
13 9 20 26 8 17 16 26 20 19 4 -6 51 -11 121 -12 63 -1 124 -6 136 -11 16 -7
27 -6 37 2 10 8 21 9 33 3 10 -5 54 -17 98 -27 49 -11 91 -27 109 -42 20 -17
36 -22 50 -18 12 3 30 8 41 10 11 2 37 8 58 13 23 6 39 6 43 0 3 -5 11 -5 19
2 10 8 19 8 33 1 15 -8 23 -7 32 4 9 11 23 14 45 9 31 -6 32 -5 27 22 l-5 27
49 -7 c27 -3 51 -11 52 -16 2 -6 15 -10 28 -10 13 0 24 -4 24 -10 0 -5 18 -10
39 -10 22 0 43 -5 46 -10 4 -6 11 -7 17 -4 6 4 8 -1 3 -16 -6 -20 -4 -22 14
-17 12 3 19 0 18 -6 -1 -6 8 -13 21 -15 12 -2 22 1 22 7 0 6 7 7 17 4 10 -4
14 -2 9 5 -3 6 -2 13 4 17 5 3 14 -5 19 -18 11 -30 36 -40 50 -23 8 10 7 17
-4 26 -8 7 -15 15 -15 19 0 3 42 4 94 3 52 -2 102 1 113 6 12 7 25 7 37 0 10
-6 51 -12 90 -15 39 -2 72 -7 74 -12 1 -4 21 -5 45 -1 32 4 41 9 39 22 -2 16
0 16 25 3 15 -8 42 -15 60 -15 17 0 35 -4 38 -10 8 -12 45 -13 45 -1 0 10 61
7 98 -4 12 -4 22 -13 22 -19 0 -7 5 -17 12 -24 9 -9 14 -7 25 6 12 16 14 16
27 0 7 -10 21 -18 31 -18 11 0 15 -5 12 -14 -3 -8 1 -20 9 -26 8 -7 14 -21 14
-31 0 -21 15 -25 26 -8 4 7 -1 16 -10 21 -18 10 -13 28 9 28 12 0 28 -29 30
-53 0 -4 6 -11 13 -16 8 -5 13 -12 12 -16 -1 -4 9 -13 21 -19 12 -6 32 -31 45
-56 36 -67 54 -81 92 -74 38 8 42 31 6 36 -20 2 -30 14 -47 53 -11 28 -29 57
-39 66 -10 9 -18 21 -18 27 0 6 -20 33 -44 60 -24 27 -46 62 -50 78 -4 15 -21
41 -37 56 -16 16 -29 32 -29 36 0 6 -27 39 -72 89 -25 28 -48 45 -48 36 0 -4
-28 20 -63 53 -96 96 -118 115 -141 125 -11 5 -39 23 -61 39 -22 17 -62 42
-90 56 -27 15 -61 39 -75 55 -19 21 -37 29 -75 34 -115 13 -130 17 -175 57
-45 40 -45 40 -112 35 -37 -3 -70 -1 -74 4 -3 5 -26 9 -51 9 -29 0 -53 6 -65
17 -12 11 -40 17 -84 19 -42 2 -70 8 -78 17 -13 17 -88 28 -107 16z m-1309
-668 c0 -5 -7 -14 -15 -21 -12 -10 -15 -10 -15 2 0 8 3 18 7 21 9 10 23 9 23
-2z m-40 -77 c0 -8 -4 -12 -10 -9 -5 3 -10 10 -10 16 0 5 5 9 10 9 6 0 10 -7
10 -16z m-158 -94 c-5 -32 -32 -42 -32 -12 0 18 18 42 30 42 4 0 5 -13 2 -30z
m-22 -358 c0 -10 -69 -36 -77 -29 -6 6 47 36 65 37 6 0 12 -4 12 -8z m-294
-164 c-3 -24 -5 -51 -5 -60 -1 -10 -5 -18 -10 -18 -8 0 -8 8 4 83 8 51 18 47
11 -5z m286 -22 c11 -16 0 -20 -16 -7 -8 7 -20 10 -26 6 -5 -3 -10 1 -10 10 0
12 6 15 23 9 12 -4 25 -12 29 -18z m65 -53 c-3 -10 -5 -2 -5 17 0 19 2 27 5
18 2 -10 2 -26 0 -35z m-80 -15 c-3 -8 -6 -5 -6 6 -1 11 2 17 5 13 3 -3 4 -12
1 -19z m-333 -30 c-3 -18 -10 -42 -14 -53 -7 -19 -8 -19 -14 3 -8 25 10 82 26
82 6 0 7 -14 2 -32z m306 -53 c0 -8 -4 -15 -10 -15 -5 0 -7 7 -4 15 4 8 8 15
10 15 2 0 4 -7 4 -15z m100 -42 c0 -7 -4 -13 -10 -13 -5 0 -10 12 -10 28 0 21
2 24 10 12 5 -8 10 -21 10 -27z m-373 -20 c-3 -10 -5 -4 -5 12 0 17 2 24 5 18
2 -7 2 -21 0 -30z m153 12 c0 -14 -4 -25 -10 -25 -5 0 -10 11 -10 25 0 14 5
25 10 25 6 0 10 -11 10 -25z m98 3 c1 -13 -1 -34 -4 -47 -9 -39 -28 -8 -20 33
8 40 21 48 24 14z m-293 -20 c-11 -36 -25 -45 -25 -17 0 27 7 39 22 39 5 0 6
-10 3 -22z m352 -15 c-3 -10 -5 -4 -5 12 0 17 2 24 5 18 2 -7 2 -21 0 -30z
m-200 -45 c-3 -7 -5 -2 -5 12 0 14 2 19 5 13 2 -7 2 -19 0 -25z m-270 -50 c-3
-7 -5 -2 -5 12 0 14 2 19 5 13 2 -7 2 -19 0 -25z m93 3 c0 -18 -10 -41 -25
-57 l-25 -27 0 25 c0 14 7 31 15 38 8 7 15 21 15 31 0 11 5 19 10 19 6 0 10
-13 10 -29z m10 -123 c9 -36 10 -61 0 -117 -6 -39 -16 -71 -21 -71 -5 0 -9 7
-9 16 0 28 -35 10 -40 -21 -11 -60 -17 -8 -9 70 10 88 14 105 27 105 5 0 7
-27 5 -60 -2 -38 0 -60 7 -60 30 0 42 134 14 154 -9 7 -13 18 -8 29 9 24 18
12 34 -45z m440 5 c0 -20 -19 -44 -21 -26 -1 4 -3 25 -5 47 -3 35 -2 37 11 20
8 -11 15 -29 15 -41z m-66 -35 c-15 -49 -25 -71 -30 -65 -8 8 18 87 28 87 5 0
6 -10 2 -22z m-136 -26 c4 -25 -13 -30 -22 -6 -9 25 -7 36 7 32 6 -3 13 -14
15 -26z m-361 -54 c-3 -8 -6 -5 -6 6 -1 11 2 17 5 13 3 -3 4 -12 1 -19z m470
-60 c-3 -8 -6 -5 -6 6 -1 11 2 17 5 13 3 -3 4 -12 1 -19z m50 0 c-3 -8 -6 -5
-6 6 -1 11 2 17 5 13 3 -3 4 -12 1 -19z m-341 -15 c-10 -10 -19 5 -10 18 6 11
8 11 12 0 2 -7 1 -15 -2 -18z m264 -14 c0 -8 5 -8 15 1 12 10 15 10 15 -4 0
-9 -5 -16 -11 -16 -6 0 -9 -7 -6 -15 4 -8 2 -17 -3 -20 -6 -4 -10 0 -10 8 0 8
-7 20 -15 27 -8 7 -12 16 -9 21 7 13 24 11 24 -2z m-460 -114 c-5 -22 -12 -57
-15 -77 -3 -21 -11 -38 -17 -38 -6 0 -8 11 -4 28 11 46 14 75 17 127 1 28 5
54 8 60 11 20 21 -61 11 -100z m407 37 c-3 -14 -6 -12 -14 8 -6 14 -8 29 -5
34 7 13 24 -22 19 -42z m-157 28 c0 -5 -4 -10 -10 -10 -5 0 -10 5 -10 10 0 6
5 10 10 10 6 0 10 -4 10 -10z m-61 -32 c-7 -13 -14 -32 -15 -43 -7 -48 -17
-86 -24 -90 -5 -3 -6 -26 -4 -53 3 -36 0 -53 -15 -72 -11 -14 -22 -22 -26 -19
-3 4 1 14 10 22 11 12 15 37 15 100 0 72 4 91 26 131 14 25 30 46 35 46 5 0 4
-10 -2 -22z m-109 -14 c0 -8 -5 -12 -10 -9 -6 4 -8 11 -5 16 9 14 15 11 15 -7z
m230 -18 c0 -8 -6 -21 -14 -28 -8 -8 -15 -23 -18 -34 -2 -11 -13 -20 -26 -22
-26 -4 -29 10 -6 29 8 7 22 25 30 41 15 30 34 37 34 14z m250 -13 c-1 -19 -19
-35 -30 -28 -10 6 -9 11 5 22 22 15 25 16 25 6z m-169 -31 c-6 -12 -11 -32
-11 -46 0 -31 -15 -35 -23 -6 -7 28 3 60 19 60 8 0 14 5 14 12 0 6 3 9 6 6 3
-4 1 -15 -5 -26z m-49 -106 c-3 -28 -9 -45 -16 -44 -6 1 -22 -4 -35 -11 -24
-13 -24 -13 3 21 14 19 26 44 26 55 0 11 3 23 6 26 14 14 19 -3 16 -47z m-388
-124 c-4 -23 -10 -42 -15 -42 -5 0 -9 -8 -10 -17 0 -13 -2 -14 -6 -4 -8 20 19
123 29 113 5 -5 6 -27 2 -50z m-87 26 c-3 -8 -6 -5 -6 6 -1 11 2 17 5 13 3 -3
4 -12 1 -19z m303 -12 c0 -19 -7 -39 -17 -47 -15 -13 -16 -11 -10 11 4 14 7
35 7 48 0 12 5 22 10 22 6 0 10 -15 10 -34z m57 -78 c-3 -8 -6 -5 -6 6 -1 11
2 17 5 13 3 -3 4 -12 1 -19z m-154 -65 c-8 -21 -20 -15 -18 10 4 32 4 33 14
18 5 -8 7 -20 4 -28z m-39 12 c3 -8 1 -15 -4 -15 -6 0 -10 7 -10 15 0 8 2 15
4 15 2 0 6 -7 10 -15z m244 -77 c3 -62 1 -65 -38 -43 -14 8 -36 14 -50 15 -32
0 -50 17 -50 45 0 35 20 46 80 43 l55 -3 3 -57z m-168 7 c0 -8 -4 -15 -10 -15
-5 0 -10 7 -10 15 0 8 5 15 10 15 6 0 10 -7 10 -15z m-10 -160 c0 -14 -37 -45
-55 -45 -18 1 -16 4 10 25 28 24 45 31 45 20z m-25 -234 c-7 -24 -35 -36 -35
-16 0 8 5 26 12 40 10 22 13 23 20 10 5 -8 7 -24 3 -34z m-99 -407 c0 -69 -4
-107 -13 -119 -7 -10 -14 -17 -16 -14 -1 2 -13 24 -25 49 -22 44 -22 47 -6 90
14 39 20 62 23 93 1 5 9 7 18 5 16 -3 18 -17 19 -104z m-66 76 c0 -5 -5 -10
-11 -10 -5 0 -7 5 -4 10 3 6 8 10 11 10 2 0 4 -4 4 -10z"/>
<path d="M3405 6670 c3 -5 10 -10 16 -10 5 0 9 5 9 10 0 6 -7 10 -16 10 -8 0
-12 -4 -9 -10z"/>
<path d="M5626 6257 c-16 -12 -16 -14 4 -34 11 -12 20 -33 20 -46 0 -14 7 -30
15 -37 8 -7 15 -19 15 -27 0 -14 54 -179 71 -218 14 -32 50 -195 59 -265 4
-36 13 -78 20 -95 16 -40 26 -329 13 -358 -18 -37 -34 -306 -21 -331 14 -25
17 -320 5 -478 -7 -93 -6 -108 7 -108 10 0 17 15 21 48 4 26 11 71 16 101 5
30 9 75 9 100 0 25 7 59 15 75 10 19 15 58 15 123 0 77 4 101 22 136 20 38 22
57 22 192 0 201 -10 424 -24 510 -6 39 -13 88 -16 110 -8 52 -21 66 -39 41
-16 -21 -13 -23 -30 30 -3 9 2 28 11 42 9 13 12 22 6 18 -5 -3 -15 7 -22 23
-9 23 -9 33 1 49 11 18 10 24 -4 39 -9 11 -21 41 -27 69 -6 27 -21 65 -33 84
-37 56 -56 94 -57 113 0 10 -8 17 -20 17 -15 0 -20 7 -20 28 0 39 -30 66 -54
49z m309 -1057 c3 -5 1 -10 -4 -10 -6 0 -11 5 -11 10 0 6 2 10 4 10 3 0 8 -4
11 -10z m-9 -150 l-14 -45 -1 46 c-1 47 6 66 21 51 4 -4 2 -28 -6 -52z m-16
-115 c0 -19 -4 -35 -10 -35 -5 0 -10 16 -10 35 0 19 5 35 10 35 6 0 10 -16 10
-35z"/>
<path d="M2660 5944 c0 -8 5 -12 10 -9 6 3 10 10 10 16 0 5 -4 9 -10 9 -5 0
-10 -7 -10 -16z"/>
<path d="M2595 5390 c3 -5 10 -10 16 -10 5 0 9 5 9 10 0 6 -7 10 -16 10 -8 0
-12 -4 -9 -10z"/>
<path d="M3367 4928 c-11 -7 4 -13 26 -9 4 0 7 -7 7 -18 0 -11 -7 -18 -17 -18
-62 3 -127 -17 -163 -49 -23 -21 -48 -34 -65 -34 -15 0 -39 -6 -53 -14 -15 -7
-40 -18 -57 -23 -19 -6 -29 -15 -29 -26 1 -9 -2 -14 -8 -11 -5 3 -14 1 -21 -4
-15 -12 -86 -24 -155 -27 -28 -1 -55 -5 -59 -8 -3 -4 -9 -24 -12 -44 -6 -32
-10 -38 -31 -37 -23 1 -50 -16 -50 -31 0 -3 8 -4 18 -1 22 7 37 -4 37 -29 0
-11 7 -20 15 -20 8 -1 14 -7 12 -14 -1 -7 7 -15 18 -18 14 -4 20 -14 20 -34 0
-29 -10 -38 -47 -43 -28 -4 -20 -20 12 -26 20 -4 31 -13 36 -30 4 -15 7 10 8
62 1 65 -3 90 -14 102 -18 18 -19 39 -2 88 20 56 24 54 19 -6 -3 -43 1 -65 18
-101 22 -45 22 -51 11 -148 -32 -286 -38 -446 -18 -507 12 -37 83 -108 127
-126 79 -34 256 -88 325 -99 115 -19 140 -26 123 -36 -7 -5 -26 -9 -43 -9 -29
0 -30 -2 -33 -51 -2 -33 -10 -61 -22 -77 -11 -13 -20 -33 -20 -43 0 -12 -7
-19 -19 -19 -11 0 -23 -9 -26 -21 -9 -27 -61 -79 -80 -79 -8 0 -15 -4 -15 -10
0 -5 -16 -16 -36 -25 -20 -8 -38 -23 -41 -34 -6 -22 -32 -33 -87 -36 -25 -1
-44 -9 -55 -22 -9 -12 -31 -28 -49 -37 -32 -16 -35 -36 -6 -36 11 0 13 -12 10
-57 -2 -40 2 -67 13 -88 15 -28 16 -29 19 -7 2 12 10 22 17 22 20 0 36 -33 25
-50 -5 -8 -6 -18 -3 -24 3 -5 1 -6 -5 -2 -7 4 -12 1 -12 -6 0 -9 -3 -9 -10 2
-8 13 -10 12 -10 -2 0 -11 -8 -18 -19 -18 -17 0 -18 -3 -8 -25 7 -14 15 -25
20 -25 4 0 7 -14 7 -30 0 -33 -22 -49 -43 -32 -17 15 -39 -1 -31 -21 3 -9 10
-17 15 -17 5 0 9 -5 9 -11 0 -7 -12 -9 -32 -5 -44 8 -48 9 -85 3 -42 -6 -63
-23 -63 -53 0 -33 -37 -32 -52 1 -13 29 -48 34 -49 8 0 -15 -2 -15 -8 2 -5 11
-14 20 -22 20 -8 0 -18 14 -23 32 -7 24 -16 32 -38 35 -25 4 -28 1 -27 -21 0
-14 3 -20 6 -13 9 22 22 12 21 -17 -1 -15 2 -33 6 -40 4 -6 3 -11 -2 -11 -5 0
-12 -9 -15 -20 -7 -28 -27 -25 -27 5 0 15 -6 25 -14 25 -17 0 -31 27 -35 68
-3 31 -19 -1 -19 -39 -1 -23 -3 -44 -6 -46 -11 -12 -36 21 -36 47 0 32 -23 46
-40 24 -15 -18 -40 -18 -40 -1 0 7 6 19 13 26 10 10 8 12 -8 9 -11 -2 -19 -10
-17 -17 1 -7 -2 -11 -8 -9 -7 2 -11 7 -10 11 0 4 -10 22 -24 38 -15 17 -26 40
-26 51 0 16 -3 18 -13 9 -8 -6 -17 -8 -21 -4 -4 4 -17 8 -29 8 -16 0 -23 7
-25 25 -5 35 -18 46 -37 30 -15 -12 -16 -11 -19 13 0 6 -6 12 -13 12 -6 0 -29
19 -51 43 -21 23 -44 42 -50 42 -15 0 -16 17 -2 25 12 7 -12 35 -30 35 -21 0
-5 35 18 38 27 4 28 9 2 30 -23 19 -53 109 -39 118 12 7 11 24 -1 24 -5 0 -10
-7 -10 -15 0 -26 -28 -28 -66 -6 -19 12 -40 18 -46 15 -20 -12 -59 41 -78 107
-21 71 -30 79 -87 79 l-35 0 23 -20 c13 -10 19 -19 13 -20 -5 0 -20 9 -32 20
-12 11 -28 20 -35 20 -8 0 -31 7 -50 15 -48 20 -87 20 -87 0 0 -12 -4 -13 -19
-5 -24 12 -218 14 -225 1 -6 -9 28 -25 76 -35 16 -4 28 -13 28 -21 0 -19 -21
-19 -46 0 -22 17 -84 20 -84 4 0 -5 15 -16 33 -24 38 -16 87 -53 87 -66 0 -5
-20 3 -44 16 -25 14 -52 25 -60 25 -9 0 -33 9 -53 20 -45 24 -138 27 -169 6
-11 -8 -48 -18 -82 -22 -70 -8 -80 -19 -24 -29 20 -4 53 -13 72 -22 67 -29 75
-32 93 -35 10 -2 17 -7 15 -13 -2 -5 -7 -8 -13 -6 -10 4 -41 10 -160 29 -138
23 -355 -5 -355 -45 0 -33 21 -59 56 -72 21 -8 45 -21 53 -29 14 -13 11 -14
-24 -8 -22 4 -59 16 -82 27 -23 10 -53 19 -67 19 -35 0 -78 -18 -71 -30 4 -6
-1 -7 -11 -3 -12 4 -15 3 -10 -5 4 -7 -4 -14 -21 -18 -41 -9 -126 -44 -144
-60 -8 -8 -21 -14 -27 -14 -14 0 -14 1 23 -155 44 -182 143 -460 230 -647 26
-57 39 -70 48 -45 2 6 3 -1 1 -17 -8 -55 193 -400 365 -629 532 -708 1287
-1212 2136 -1427 616 -155 1256 -159 1855 -10 244 61 456 132 620 207 l65 30
-37 8 c-33 6 -38 11 -38 36 0 16 4 29 8 29 5 0 14 11 20 25 8 17 20 25 37 25
18 0 26 7 31 24 4 19 14 26 37 28 23 2 31 8 29 19 -1 9 20 31 53 53 60 42 70
60 55 100 -5 15 -10 45 -10 66 0 33 -9 48 -71 116 -38 42 -77 93 -85 113 -19
44 -13 117 16 199 24 67 19 169 -10 199 -9 10 -20 31 -24 46 -3 15 -13 27 -21
27 -8 0 -15 5 -15 11 0 5 -4 8 -9 5 -5 -4 -20 6 -33 21 -13 16 -33 33 -44 39
-15 9 -20 24 -22 83 -3 65 -6 77 -39 119 -19 26 -48 59 -64 73 -16 14 -29 29
-29 33 0 4 -19 28 -42 52 -50 53 -60 75 -52 112 10 47 68 162 81 162 7 0 13 5
13 11 0 7 10 22 23 34 44 45 51 59 55 112 3 38 10 58 22 66 10 6 16 16 14 22
-3 7 2 17 10 24 21 17 53 88 61 135 3 21 15 48 26 59 11 12 22 38 25 59 4 21
10 38 14 38 4 0 11 23 14 52 4 28 14 64 22 80 8 15 11 28 7 28 -4 0 -2 5 5 12
9 9 8 16 -5 31 -17 18 -16 19 7 37 27 20 24 30 -9 33 -16 1 -21 8 -21 32 0 36
-14 60 -29 51 -6 -4 -15 3 -21 18 -9 25 -50 38 -50 16 0 -5 -7 -10 -15 -10
-10 0 -15 10 -15 30 0 24 4 30 21 30 19 0 20 2 8 17 -10 12 -11 17 -2 20 7 2
10 10 7 18 -3 7 5 20 17 29 13 8 21 17 18 19 -2 2 -42 9 -89 15 -170 23 -220
35 -220 52 0 5 8 6 18 4 9 -3 79 -10 154 -18 172 -16 342 -6 404 25 52 26 71
61 49 92 -8 12 -15 17 -15 12 0 -6 -23 -26 -51 -45 l-52 -35 -166 1 c-159 2
-313 20 -379 45 -15 6 -48 14 -74 19 -26 5 -67 19 -90 30 -23 11 -45 20 -50
20 -12 0 -87 54 -88 63 0 4 15 -3 33 -17 19 -15 41 -26 49 -26 8 0 18 -3 21
-7 4 -3 20 -8 37 -10 34 -3 43 22 11 32 -10 3 -32 30 -47 59 -21 41 -38 59
-70 75 -39 18 -43 19 -47 3 -7 -30 -26 31 -38 125 -29 226 -28 296 5 219 20
-48 44 -68 74 -61 17 4 23 2 20 -7 -5 -15 57 -39 78 -31 13 5 96 -18 134 -37
8 -4 38 -1 67 6 37 10 73 11 128 5 84 -10 93 -10 114 4 8 4 41 9 72 10 32 1
64 7 72 14 8 6 19 11 23 10 20 -5 64 14 64 27 0 8 7 14 16 14 23 0 74 55 74
80 0 12 5 18 10 15 13 -8 13 1 0 26 -7 13 -7 19 0 19 5 0 10 5 10 11 0 5 -4 7
-10 4 -6 -4 -10 7 -10 24 0 17 5 31 10 31 21 0 9 30 -21 51 -25 17 -35 20 -54
11 -17 -8 -25 -8 -27 0 -2 6 -24 19 -48 29 -45 18 -45 18 -13 18 18 1 75 -10
126 -23 103 -27 200 -79 247 -133 27 -30 30 -41 30 -99 0 -51 3 -66 17 -71 11
-4 21 0 27 12 6 10 25 35 42 54 36 41 55 91 47 120 -3 13 -27 31 -62 47 -31
15 -78 37 -105 50 -28 13 -57 24 -67 24 -18 0 -130 50 -152 68 -6 6 -30 13
-52 17 -86 14 -167 46 -153 60 7 8 111 -14 118 -24 6 -10 87 -41 109 -41 8 0
11 6 7 15 -3 9 0 15 9 15 7 0 15 -8 17 -17 2 -10 6 -13 9 -8 10 18 -11 95 -26
95 -9 0 -12 6 -9 15 4 8 2 15 -4 15 -5 0 -15 14 -22 30 -7 17 -15 30 -19 30
-4 0 -15 15 -25 34 -10 19 -25 37 -32 40 -8 3 -14 12 -14 21 0 14 -12 20 -34
16 -4 -1 -14 3 -21 9 -6 5 -33 12 -58 15 -35 3 -47 1 -51 -11 -7 -19 -71 -15
-158 9 -74 21 -285 21 -310 0 -11 -10 -53 -16 -130 -20 -62 -3 -118 -10 -125
-15 -7 -5 -41 -9 -75 -8 -35 1 -74 2 -88 1 -22 -1 -23 -3 -7 -12 9 -5 17 -17
17 -24 0 -8 5 -14 11 -12 6 1 14 -4 16 -10 6 -17 -17 -16 -92 1 -33 8 -82 17
-109 21 -55 8 -46 25 13 25 l33 0 -23 21 c-13 11 -18 17 -10 13 9 -5 12 -3 7
4 -4 7 -17 10 -29 7 -16 -4 -25 0 -32 17 -7 16 -17 22 -33 20 -16 -2 -25 4
-32 23 -6 15 -16 25 -23 22 -6 -2 -30 8 -52 23 -22 15 -51 31 -65 35 -14 4
-53 21 -88 36 -55 26 -98 35 -237 53 -72 9 -149 15 -198 15 -27 0 -56 6 -64
13 -13 10 -17 10 -20 1 -3 -7 -14 -13 -25 -13 -17 0 -18 3 -8 15 7 8 10 16 6
16 -23 5 -70 3 -79 -3z m-67 -142 c0 -13 26 -28 55 -31 6 -1 23 -7 40 -14 16
-7 31 -8 33 -3 3 11 102 -19 102 -31 0 -5 -7 -6 -16 -3 -9 3 -114 7 -234 7
-119 1 -223 5 -231 10 -10 6 -4 9 21 10 19 0 58 2 85 3 28 2 60 4 73 5 16 1
26 10 33 31 11 30 39 42 39 16z m198 -170 c57 -8 106 -17 109 -19 3 -3 -62 -5
-144 -4 -83 1 -174 -3 -208 -10 -33 -7 -75 -15 -92 -19 -18 -3 -33 -10 -33
-14 0 -10 -36 -22 -73 -26 -16 -1 -37 -10 -48 -20 -18 -16 -24 -13 -20 10 1 5
-4 13 -11 17 -22 14 28 55 90 73 98 28 273 33 430 12z m889 -98 c27 -6 65 -15
86 -20 41 -10 49 -32 15 -43 -22 -6 -22 -7 5 -17 26 -9 33 -36 9 -31 -5 1 -9
-5 -7 -15 2 -9 4 -20 4 -24 1 -4 10 -10 21 -13 11 -3 20 -13 20 -21 0 -17 -35
-18 -147 -1 -86 13 -103 23 -132 80 -8 15 -20 27 -26 27 -6 0 -21 14 -33 30
-13 17 -18 30 -13 30 6 0 18 -11 27 -25 20 -30 35 -32 58 -6 20 22 14 38 -18
51 -33 14 74 12 131 -2z m-1597 -8 c0 -5 -5 -10 -11 -10 -5 0 -7 5 -4 10 3 6
8 10 11 10 2 0 4 -4 4 -10z m180 -14 c0 -2 -7 -9 -15 -16 -12 -10 -15 -10 -15
4 0 9 7 16 15 16 8 0 15 -2 15 -4z m726 -98 c-1 -25 -4 -28 -38 -28 -27 0 -38
4 -38 15 0 8 5 15 10 15 6 0 10 11 10 23 0 34 9 39 35 19 14 -10 22 -26 21
-44z m-762 -24 c-2 -62 -1 -66 24 -75 15 -5 35 -14 44 -19 10 -6 29 -10 44
-10 17 0 28 -6 31 -20 4 -13 17 -22 42 -26 20 -4 54 -17 77 -30 22 -13 49 -24
58 -24 21 0 88 -30 97 -43 4 -5 37 -6 77 -2 47 5 72 3 77 -4 3 -6 10 -9 14 -7
4 3 32 7 62 10 29 3 70 10 89 16 19 5 54 10 77 10 23 0 45 5 48 10 3 6 16 10
29 10 12 0 27 5 32 10 6 6 41 11 78 12 37 0 69 5 72 10 3 4 9 6 13 3 5 -2 19
7 31 20 13 14 19 25 14 25 -16 0 44 28 75 35 26 6 31 11 31 37 0 22 -10 39
-40 65 -46 42 -53 64 -12 38 34 -23 62 -51 62 -65 0 -5 5 -10 10 -10 17 0 11
-104 -9 -166 -31 -92 -125 -268 -168 -312 -7 -7 -13 -20 -13 -27 0 -8 -14 -29
-31 -47 -16 -18 -37 -45 -46 -59 -9 -15 -40 -41 -69 -59 -52 -31 -59 -33 -189
-38 -83 -3 -165 0 -212 7 -170 27 -437 98 -453 121 -3 4 -23 13 -44 21 -82 29
-97 146 -61 474 18 162 20 175 32 175 5 0 7 -30 7 -66z m330 -39 c3 -8 15 -15
27 -15 15 0 19 -4 15 -16 -3 -9 -6 -17 -6 -20 0 -2 -6 -1 -14 2 -8 3 -17 1
-20 -4 -4 -7 -80 -8 -126 -2 -3 0 3 5 13 11 9 5 17 21 17 34 0 23 4 25 44 25
30 0 46 -5 50 -15z m130 -51 c9 -3 16 -13 16 -22 0 -12 -3 -13 -12 -4 -7 7
-22 12 -35 12 -13 0 -23 5 -23 10 0 11 30 13 54 4z m1096 -42 c30 -14 37 -25
46 -67 23 -101 33 -162 44 -260 26 -246 48 -369 77 -432 16 -34 23 -66 21 -90
-3 -35 -6 -38 -33 -39 -16 0 -38 3 -47 8 -10 5 -19 4 -23 -3 -4 -6 -13 -8 -20
-5 -7 2 -17 0 -22 -5 -12 -12 -48 -21 -86 -23 -24 -1 -27 -4 -22 -24 4 -15 2
-21 -5 -17 -5 3 -10 16 -10 28 0 17 -6 23 -27 25 -16 1 -38 7 -51 14 -17 9
-34 9 -74 -1 -42 -9 -54 -9 -57 1 -2 6 -14 22 -27 35 -18 18 -34 23 -77 23
-29 0 -58 -5 -65 -12 -9 -9 -19 -9 -46 0 -18 7 -54 13 -79 14 -27 1 -49 8 -51
15 -3 7 -15 13 -26 13 -17 0 -20 6 -20 43 0 39 4 44 51 77 28 19 68 44 88 56
20 11 46 36 59 55 13 18 30 41 38 50 8 8 14 25 14 37 0 12 4 22 9 22 5 0 13
10 17 23 6 19 20 40 64 94 6 7 10 18 10 26 0 7 4 17 9 22 5 6 23 38 41 73 18
34 36 62 41 62 5 0 9 8 9 19 0 10 11 35 25 55 14 20 25 41 25 47 0 5 7 21 16
34 14 22 24 25 73 25 33 0 70 -7 91 -18z m750 -28 c0 -8 -4 -12 -10 -9 -5 3
-10 10 -10 16 0 5 5 9 10 9 6 0 10 -7 10 -16z m-23 -60 c-3 -3 -12 -4 -19 -1
-8 3 -5 6 6 6 11 1 17 -2 13 -5z m-1767 -574 c0 -5 -5 -10 -11 -10 -5 0 -7 5
-4 10 3 6 8 10 11 10 2 0 4 -4 4 -10z m-2134 -206 c17 -14 17 -15 1 -10 -10 3
-23 6 -28 6 -5 0 -9 5 -9 10 0 14 13 12 36 -6z m-31 -34 c26 -29 15 -31 -24
-3 -27 18 -30 23 -14 23 11 0 28 -9 38 -20z m70 10 c3 -5 1 -10 -4 -10 -6 0
-11 5 -11 10 0 6 2 10 4 10 3 0 8 -4 11 -10z m3940 -152 c-1 -12 -7 -24 -13
-26 -16 -5 -15 35 1 41 6 3 12 6 13 6 0 1 0 -9 -1 -21z m-3834 -17 c21 -10 48
-30 60 -45 23 -29 21 -46 -2 -23 -28 27 -85 50 -138 56 -30 3 -56 12 -59 19
-2 7 2 10 11 6 8 -3 18 0 22 6 8 13 50 6 106 -19z m3779 -11 c0 -5 -7 -10 -15
-10 -8 0 -15 5 -15 10 0 6 7 10 15 10 8 0 15 -4 15 -10z m-1753 -172 c-3 -8
-6 -5 -6 6 -1 11 2 17 5 13 3 -3 4 -12 1 -19z m143 -8 c0 -5 -4 -10 -10 -10
-5 0 -10 5 -10 10 0 6 5 10 10 10 6 0 10 -4 10 -10z m257 -45 c-4 -8 -11 -15
-17 -15 -7 0 -7 6 0 21 13 23 26 19 17 -6z m198 -30 c17 -3 57 -8 90 -11 52
-5 95 -24 95 -43 0 -8 -200 -4 -209 4 -3 4 -7 11 -7 16 -1 5 -2 12 -3 15 0 4
-7 1 -15 -5 -13 -11 -66 -6 -66 6 0 18 29 33 55 28 17 -3 44 -8 60 -10z m-401
-75 c26 -15 41 -18 50 -11 25 21 120 -26 110 -53 -10 -26 16 -27 28 -2 6 14
17 26 24 26 27 0 142 -41 154 -55 7 -8 17 -12 23 -8 6 3 37 5 69 4 43 -2 65
-8 79 -22 26 -26 23 -68 -7 -103 -24 -27 -28 -28 -81 -22 -30 3 -65 12 -77 18
-33 19 -104 5 -88 -17 10 -14 71 -37 112 -41 79 -9 142 -28 155 -47 12 -18 11
-24 -11 -53 -21 -27 -31 -32 -57 -30 -18 2 -22 1 -9 -1 40 -8 18 -33 -28 -33
-36 0 -30 -19 10 -30 22 -6 40 -15 40 -20 0 -6 5 -10 10 -10 6 0 10 9 10 20 0
24 -1 24 38 5 18 -9 29 -21 26 -29 -3 -7 2 -19 11 -26 14 -12 16 -10 10 13
-10 37 9 59 40 47 15 -6 27 -6 30 0 11 17 35 11 35 -9 0 -12 7 -18 18 -17 12
1 16 -5 14 -19 -2 -11 -8 -21 -13 -23 -5 -2 -9 -10 -9 -17 0 -7 -16 -20 -36
-30 -20 -9 -39 -26 -41 -36 -7 -24 -41 -25 -50 -1 -9 22 -35 42 -47 35 -5 -4
-6 -1 -2 5 10 16 -13 25 -29 12 -13 -10 -15 -8 -15 16 l-1 29 -15 -27 c-24
-44 -83 -28 -68 18 3 11 2 15 -3 8 -12 -17 -36 -22 -55 -13 -11 6 -18 4 -22
-6 -8 -21 -20 -19 -54 10 -35 29 -42 31 -42 10 0 -18 -12 -19 -27 -4 -16 16
-94 17 -126 2 -27 -13 -27 -13 -21 12 5 19 2 25 -10 25 -9 0 -16 -8 -16 -19 0
-12 -11 -23 -30 -29 -21 -8 -28 -15 -24 -27 5 -11 0 -18 -15 -22 -11 -3 -21
-11 -21 -18 0 -8 -3 -20 -6 -29 -5 -12 0 -16 20 -16 15 0 30 -8 36 -20 25 -47
91 -96 123 -91 10 1 17 -4 17 -13 0 -21 49 -21 56 -1 8 21 21 19 27 -5 5 -20
27 -29 27 -11 0 5 16 5 38 1 36 -9 128 -13 167 -9 11 1 26 8 33 16 16 15 32
17 32 3 0 -5 9 -10 19 -10 17 0 18 4 10 32 -8 30 -1 57 8 31 7 -18 23 -16 39
5 12 15 15 15 24 2 7 -11 4 -16 -12 -20 -31 -8 -37 -33 -7 -28 13 2 29 -4 36
-12 10 -12 12 -12 13 -1 0 14 28 40 43 41 14 0 7 -26 -13 -43 -23 -20 -26 -37
-6 -37 8 0 24 -12 35 -26 11 -14 25 -23 30 -20 5 4 12 2 16 -4 3 -5 19 -10 35
-10 34 0 44 -20 23 -49 -14 -21 -16 -21 -40 -6 -32 21 -39 14 -21 -22 7 -15
13 -35 12 -43 0 -8 -2 -30 -2 -47 -3 -49 -32 -45 -33 5 0 20 -3 31 -6 25 -2
-7 -11 -13 -19 -13 -8 0 -15 -4 -15 -10 -1 -5 -3 -14 -4 -20 -1 -5 -3 -17 -4
-25 -2 -22 -15 -18 -26 7 -15 34 -42 34 -71 -2 -20 -24 -29 -28 -40 -19 -8 6
-28 8 -51 4 -84 -14 -123 -14 -123 0 0 16 -37 26 -66 19 -17 -4 -23 0 -28 22
l-7 27 -29 -28 c-26 -25 -30 -26 -36 -11 -3 9 -4 30 0 46 6 31 -10 42 -20 15
-7 -18 -97 -85 -114 -85 -7 0 -10 7 -6 17 9 24 -53 74 -76 62 -10 -5 -15 -16
-12 -24 5 -11 -1 -15 -20 -15 -19 0 -27 -6 -32 -25 -4 -14 -9 -23 -12 -20 -3
3 -13 -2 -22 -10 -23 -21 -75 -10 -88 19 -8 19 -16 22 -47 18 -22 -3 -35 -1
-32 5 3 5 2 15 -3 23 -7 11 -12 11 -23 2 -11 -10 -17 -9 -27 3 -8 9 -25 15
-39 13 -17 -2 -25 2 -24 10 2 6 -2 11 -9 9 -8 -1 -11 9 -10 29 2 18 -3 36 -12
43 -11 10 -17 8 -30 -10 -8 -13 -18 -20 -21 -17 -9 9 17 58 32 58 9 0 12 11 9
39 -4 49 -11 60 -36 54 -22 -6 -26 11 -11 36 6 9 6 22 -1 34 -10 19 -23 16
-23 -6 0 -7 -4 -12 -10 -12 -11 0 -8 39 7 77 6 16 8 37 5 48 -3 11 -1 23 4 26
14 8 11 34 -4 34 -7 0 -25 14 -40 31 -22 26 -28 28 -33 15 -4 -9 1 -25 10 -35
16 -18 12 -31 -10 -31 -29 0 -19 89 10 90 6 1 2 8 -9 18 -11 9 -25 36 -31 58
-9 36 -8 43 8 53 10 6 18 18 18 26 0 9 6 12 15 9 8 -4 15 -1 15 7 0 7 3 10 6
6 9 -9 34 19 34 37 0 9 -6 16 -12 16 -7 0 -5 5 5 11 13 8 15 14 8 23 -7 9 -3
20 16 41 15 15 29 23 31 17 5 -17 33 -2 42 24 7 17 14 21 30 17 13 -4 26 0 31
8 7 11 11 10 23 -6 9 -11 16 -28 16 -38 0 -14 5 -16 25 -11 16 4 27 2 30 -8 4
-10 31 -14 98 -16 117 -4 174 -9 192 -19 7 -4 38 -6 67 -4 44 3 49 6 28 12
-17 6 -4 7 38 5 35 -2 60 0 56 5 -3 5 -14 9 -25 9 -16 0 -19 7 -19 40 0 41
-13 53 -24 24 -5 -13 -15 -15 -48 -11 -50 7 -68 27 -68 76 -1 34 -1 35 -16 16
-34 -46 -45 -55 -68 -55 -31 0 -62 28 -70 63 -5 21 -1 33 18 52 30 30 59 31
110 5z m-167 -11 c12 -12 6 -40 -11 -51 -6 -4 -19 0 -28 9 -17 15 -17 17 -2
35 20 21 26 22 41 7z m780 -189 c-17 -28 -27 -25 -27 8 0 21 2 24 10 12 7 -12
10 -8 10 15 1 28 2 29 10 7 7 -15 6 -29 -3 -42z m119 26 c8 -8 11 -17 6 -20
-4 -2 -13 4 -20 15 -14 22 -7 25 14 5z m-909 -22 c-3 -3 -12 -4 -19 -1 -8 3
-5 6 6 6 11 1 17 -2 13 -5z m873 -9 c0 -8 -4 -15 -10 -15 -5 0 -10 7 -10 15 0
8 5 15 10 15 6 0 10 -7 10 -15z m-1703 -57 c-3 -8 -6 -5 -6 6 -1 11 2 17 5 13
3 -3 4 -12 1 -19z m-177 -18 c0 -5 -4 -10 -10 -10 -5 0 -10 5 -10 10 0 6 5 10
10 10 6 0 10 -4 10 -10z m566 -237 c-11 -11 -19 6 -11 24 8 17 8 17 12 0 3
-10 2 -21 -1 -24z m1148 -170 c-9 -52 -14 -54 -14 -5 0 23 5 42 10 42 7 0 8
-14 4 -37z m-1054 -172 c0 -6 -4 -13 -10 -16 -5 -3 -10 1 -10 9 0 9 5 16 10
16 6 0 10 -4 10 -9z m705 -211 c-3 -5 -16 -10 -28 -9 -21 0 -21 1 -2 9 28 12
37 12 30 0z m95 -54 c0 -2 -7 -9 -15 -16 -13 -11 -14 -10 -9 4 5 14 24 23 24
12z m363 -37 c-5 -16 -8 -18 -14 -7 -5 7 -9 21 -9 32 0 15 3 16 14 7 8 -7 12
-21 9 -32z m-1873 -274 c0 -8 -4 -15 -10 -15 -5 0 -10 7 -10 15 0 8 5 15 10
15 6 0 10 -7 10 -15z m24 -80 c-4 -8 -11 -15 -16 -15 -6 0 -5 6 2 15 7 8 14
15 16 15 2 0 1 -7 -2 -15z m-14 -495 c0 -5 -4 -10 -10 -10 -5 0 -10 5 -10 10
0 6 5 10 10 10 6 0 10 -4 10 -10z m2828 -73 c5 -38 -30 -81 -77 -97 -47 -15
-94 -5 -51 12 77 30 95 45 98 83 4 42 25 43 30 2z"/>
<path d="M3646 4394 c-5 -14 -4 -15 9 -4 17 14 19 20 6 20 -5 0 -12 -7 -15
-16z"/>
<path d="M4148 4244 c-5 -4 -8 -19 -8 -33 1 -23 2 -24 11 -8 11 19 9 53 -3 41z"/>
<path d="M4103 4139 c-7 -7 -13 -18 -13 -24 0 -11 -57 -95 -71 -105 -4 -3 -15
-25 -25 -50 -10 -25 -28 -62 -41 -82 -13 -21 -23 -42 -23 -47 0 -16 -26 -30
-66 -36 -101 -14 -114 -18 -114 -28 0 -7 -13 -13 -29 -14 -16 -1 -44 -11 -62
-23 -19 -11 -42 -23 -51 -26 -10 -4 -18 -13 -18 -20 0 -28 173 -10 239 26 12
6 21 15 21 20 0 6 4 9 10 8 15 -5 118 110 137 153 9 21 20 39 25 39 4 0 8 6 8
13 0 6 14 30 30 51 17 22 30 45 30 51 0 7 7 26 16 43 18 38 16 71 -3 51z"/>
<path d="M4315 2329 c-11 -17 1 -21 15 -4 8 9 8 15 2 15 -6 0 -14 -5 -17 -11z"/>
<path d="M3907 1897 c-11 -29 -9 -43 4 -30 6 6 9 19 7 29 -3 18 -4 18 -11 1z"/>
<path d="M4002 1790 c0 -14 2 -19 5 -12 2 6 2 18 0 25 -3 6 -5 1 -5 -13z"/>
<path d="M1696 4668 c-9 -5 -16 -18 -16 -28 0 -10 -4 -22 -10 -25 -5 -3 -10
-21 -10 -39 0 -17 -5 -37 -11 -43 -11 -11 9 -213 22 -213 4 0 10 15 13 34 4
19 13 37 22 40 8 3 13 10 10 14 -3 5 0 26 6 48 7 21 12 43 12 47 1 4 7 12 15
16 7 5 10 14 7 20 -8 13 13 36 33 36 23 0 23 20 1 48 -28 35 -73 57 -94 45z"/>
<path d="M4728 4653 c7 -3 16 -2 19 1 4 3 -2 6 -13 5 -11 0 -14 -3 -6 -6z"/>
<path d="M2418 4623 c7 -3 16 -2 19 1 4 3 -2 6 -13 5 -11 0 -14 -3 -6 -6z"/>
<path d="M2525 4610 c17 -4 41 -8 55 -8 l25 0 -25 8 c-14 4 -38 8 -55 8 l-30
0 30 -8z"/>
<path d="M2618 4593 c7 -3 16 -2 19 1 4 3 -2 6 -13 5 -11 0 -14 -3 -6 -6z"/>
<path d="M1896 4452 c-6 -27 -4 -36 11 -47 22 -17 33 -19 33 -5 0 6 -6 10 -14
10 -10 0 -16 13 -18 38 l-3 37 -9 -33z"/>
<path d="M5739 4133 c-26 -3 -40 -11 -52 -33 -28 -46 -23 -53 36 -46 108 14
127 18 127 30 0 18 -43 56 -61 54 -8 -1 -30 -3 -50 -5z"/>
<path d="M2988 3203 c7 -3 16 -2 19 1 4 3 -2 6 -13 5 -11 0 -14 -3 -6 -6z"/>
<path d="M1940 3090 c0 -5 7 -7 15 -4 8 4 15 8 15 10 0 2 -7 4 -15 4 -8 0 -15
-4 -15 -10z"/>
<path d="M2615 2740 c-7 -23 2 -43 16 -35 12 8 12 55 0 55 -5 0 -12 -9 -16
-20z"/>
<path d="M2800 2720 c0 -5 4 -10 9 -10 6 0 13 5 16 10 3 6 -1 10 -9 10 -9 0
-16 -4 -16 -10z"/>
<path d="M2560 2700 c0 -5 5 -10 11 -10 5 0 7 5 4 10 -3 6 -8 10 -11 10 -2 0
-4 -4 -4 -10z"/>
</g>
</svg>
